<mxfile host="app.diagrams.net" agent="Mozilla/5.0 (Windows NT 10.0; Win64; x64; rv:132.0) Gecko/20100101 Firefox/132.0" version="24.8.4">
  <diagram name="Страница — 1" id="M_jzQXmH7S2AjxUuForW">
    <mxGraphModel dx="1779" dy="1610" grid="1" gridSize="10" guides="1" tooltips="1" connect="1" arrows="1" fold="1" page="1" pageScale="1" pageWidth="827" pageHeight="1169" math="0" shadow="0">
      <root>
        <mxCell id="0" />
        <mxCell id="1" parent="0" />
        <mxCell id="CVCiPec276KEIEZ4r-IQ-117" value="Пользователь" style="shape=umlLifeline;perimeter=lifelinePerimeter;whiteSpace=wrap;html=1;container=1;dropTarget=0;collapsible=0;recursiveResize=0;outlineConnect=0;portConstraint=eastwest;newEdgeStyle={&quot;curved&quot;:0,&quot;rounded&quot;:0};" vertex="1" parent="1">
          <mxGeometry x="1130" y="40" width="100" height="80" as="geometry" />
        </mxCell>
        <mxCell id="CVCiPec276KEIEZ4r-IQ-118" value="Сайт" style="shape=umlLifeline;perimeter=lifelinePerimeter;whiteSpace=wrap;html=1;container=1;dropTarget=0;collapsible=0;recursiveResize=0;outlineConnect=0;portConstraint=eastwest;newEdgeStyle={&quot;curved&quot;:0,&quot;rounded&quot;:0};" vertex="1" parent="1">
          <mxGeometry x="1400" y="40" width="100" height="1360" as="geometry" />
        </mxCell>
        <mxCell id="CVCiPec276KEIEZ4r-IQ-129" value="" style="html=1;points=[[0,0,0,0,5],[0,1,0,0,-5],[1,0,0,0,5],[1,1,0,0,-5]];perimeter=orthogonalPerimeter;outlineConnect=0;targetShapes=umlLifeline;portConstraint=eastwest;newEdgeStyle={&quot;curved&quot;:0,&quot;rounded&quot;:0};" vertex="1" parent="CVCiPec276KEIEZ4r-IQ-118">
          <mxGeometry x="45" y="80" width="10" height="60" as="geometry" />
        </mxCell>
        <mxCell id="CVCiPec276KEIEZ4r-IQ-142" value="" style="html=1;points=[[0,0,0,0,5],[0,1,0,0,-5],[1,0,0,0,5],[1,1,0,0,-5]];perimeter=orthogonalPerimeter;outlineConnect=0;targetShapes=umlLifeline;portConstraint=eastwest;newEdgeStyle={&quot;curved&quot;:0,&quot;rounded&quot;:0};" vertex="1" parent="CVCiPec276KEIEZ4r-IQ-118">
          <mxGeometry x="45" y="270" width="10" height="90" as="geometry" />
        </mxCell>
        <mxCell id="CVCiPec276KEIEZ4r-IQ-149" value="" style="html=1;points=[[0,0,0,0,5],[0,1,0,0,-5],[1,0,0,0,5],[1,1,0,0,-5]];perimeter=orthogonalPerimeter;outlineConnect=0;targetShapes=umlLifeline;portConstraint=eastwest;newEdgeStyle={&quot;curved&quot;:0,&quot;rounded&quot;:0};" vertex="1" parent="CVCiPec276KEIEZ4r-IQ-118">
          <mxGeometry x="45" y="390" width="10" height="90" as="geometry" />
        </mxCell>
        <mxCell id="CVCiPec276KEIEZ4r-IQ-157" value="" style="html=1;points=[[0,0,0,0,5],[0,1,0,0,-5],[1,0,0,0,5],[1,1,0,0,-5]];perimeter=orthogonalPerimeter;outlineConnect=0;targetShapes=umlLifeline;portConstraint=eastwest;newEdgeStyle={&quot;curved&quot;:0,&quot;rounded&quot;:0};" vertex="1" parent="CVCiPec276KEIEZ4r-IQ-118">
          <mxGeometry x="45" y="520" width="10" height="80" as="geometry" />
        </mxCell>
        <mxCell id="CVCiPec276KEIEZ4r-IQ-163" value="" style="html=1;points=[[0,0,0,0,5],[0,1,0,0,-5],[1,0,0,0,5],[1,1,0,0,-5]];perimeter=orthogonalPerimeter;outlineConnect=0;targetShapes=umlLifeline;portConstraint=eastwest;newEdgeStyle={&quot;curved&quot;:0,&quot;rounded&quot;:0};" vertex="1" parent="CVCiPec276KEIEZ4r-IQ-118">
          <mxGeometry x="45" y="620" width="10" height="100" as="geometry" />
        </mxCell>
        <mxCell id="CVCiPec276KEIEZ4r-IQ-180" value="" style="html=1;points=[[0,0,0,0,5],[0,1,0,0,-5],[1,0,0,0,5],[1,1,0,0,-5]];perimeter=orthogonalPerimeter;outlineConnect=0;targetShapes=umlLifeline;portConstraint=eastwest;newEdgeStyle={&quot;curved&quot;:0,&quot;rounded&quot;:0};" vertex="1" parent="CVCiPec276KEIEZ4r-IQ-118">
          <mxGeometry x="45" y="760" width="10" height="110" as="geometry" />
        </mxCell>
        <mxCell id="CVCiPec276KEIEZ4r-IQ-194" value="" style="html=1;points=[[0,0,0,0,5],[0,1,0,0,-5],[1,0,0,0,5],[1,1,0,0,-5]];perimeter=orthogonalPerimeter;outlineConnect=0;targetShapes=umlLifeline;portConstraint=eastwest;newEdgeStyle={&quot;curved&quot;:0,&quot;rounded&quot;:0};" vertex="1" parent="CVCiPec276KEIEZ4r-IQ-118">
          <mxGeometry x="45" y="900" width="10" height="80" as="geometry" />
        </mxCell>
        <mxCell id="CVCiPec276KEIEZ4r-IQ-200" value="" style="html=1;points=[[0,0,0,0,5],[0,1,0,0,-5],[1,0,0,0,5],[1,1,0,0,-5]];perimeter=orthogonalPerimeter;outlineConnect=0;targetShapes=umlLifeline;portConstraint=eastwest;newEdgeStyle={&quot;curved&quot;:0,&quot;rounded&quot;:0};" vertex="1" parent="CVCiPec276KEIEZ4r-IQ-118">
          <mxGeometry x="45" y="1000" width="10" height="40" as="geometry" />
        </mxCell>
        <mxCell id="CVCiPec276KEIEZ4r-IQ-221" value="" style="html=1;points=[[0,0,0,0,5],[0,1,0,0,-5],[1,0,0,0,5],[1,1,0,0,-5]];perimeter=orthogonalPerimeter;outlineConnect=0;targetShapes=umlLifeline;portConstraint=eastwest;newEdgeStyle={&quot;curved&quot;:0,&quot;rounded&quot;:0};" vertex="1" parent="CVCiPec276KEIEZ4r-IQ-118">
          <mxGeometry x="45" y="160" width="10" height="90" as="geometry" />
        </mxCell>
        <mxCell id="CVCiPec276KEIEZ4r-IQ-120" value="Платежная система" style="shape=umlLifeline;perimeter=lifelinePerimeter;whiteSpace=wrap;html=1;container=1;dropTarget=0;collapsible=0;recursiveResize=0;outlineConnect=0;portConstraint=eastwest;newEdgeStyle={&quot;curved&quot;:0,&quot;rounded&quot;:0};" vertex="1" parent="1">
          <mxGeometry x="1770" y="40" width="100" height="1360" as="geometry" />
        </mxCell>
        <mxCell id="CVCiPec276KEIEZ4r-IQ-150" value="" style="html=1;points=[[0,0,0,0,5],[0,1,0,0,-5],[1,0,0,0,5],[1,1,0,0,-5]];perimeter=orthogonalPerimeter;outlineConnect=0;targetShapes=umlLifeline;portConstraint=eastwest;newEdgeStyle={&quot;curved&quot;:0,&quot;rounded&quot;:0};" vertex="1" parent="CVCiPec276KEIEZ4r-IQ-120">
          <mxGeometry x="45" y="390" width="10" height="90" as="geometry" />
        </mxCell>
        <mxCell id="CVCiPec276KEIEZ4r-IQ-121" value="Сервис" style="shape=umlLifeline;perimeter=lifelinePerimeter;whiteSpace=wrap;html=1;container=1;dropTarget=0;collapsible=0;recursiveResize=0;outlineConnect=0;portConstraint=eastwest;newEdgeStyle={&quot;curved&quot;:0,&quot;rounded&quot;:0};" vertex="1" parent="1">
          <mxGeometry x="2000" y="40" width="100" height="1360" as="geometry" />
        </mxCell>
        <mxCell id="CVCiPec276KEIEZ4r-IQ-159" value="" style="html=1;points=[[0,0,0,0,5],[0,1,0,0,-5],[1,0,0,0,5],[1,1,0,0,-5]];perimeter=orthogonalPerimeter;outlineConnect=0;targetShapes=umlLifeline;portConstraint=eastwest;newEdgeStyle={&quot;curved&quot;:0,&quot;rounded&quot;:0};" vertex="1" parent="CVCiPec276KEIEZ4r-IQ-121">
          <mxGeometry x="45" y="520" width="10" height="80" as="geometry" />
        </mxCell>
        <mxCell id="CVCiPec276KEIEZ4r-IQ-164" value="" style="html=1;points=[[0,0,0,0,5],[0,1,0,0,-5],[1,0,0,0,5],[1,1,0,0,-5]];perimeter=orthogonalPerimeter;outlineConnect=0;targetShapes=umlLifeline;portConstraint=eastwest;newEdgeStyle={&quot;curved&quot;:0,&quot;rounded&quot;:0};" vertex="1" parent="CVCiPec276KEIEZ4r-IQ-121">
          <mxGeometry x="45" y="620" width="10" height="100" as="geometry" />
        </mxCell>
        <mxCell id="CVCiPec276KEIEZ4r-IQ-183" value="" style="html=1;points=[[0,0,0,0,5],[0,1,0,0,-5],[1,0,0,0,5],[1,1,0,0,-5]];perimeter=orthogonalPerimeter;outlineConnect=0;targetShapes=umlLifeline;portConstraint=eastwest;newEdgeStyle={&quot;curved&quot;:0,&quot;rounded&quot;:0};" vertex="1" parent="CVCiPec276KEIEZ4r-IQ-121">
          <mxGeometry x="45" y="760" width="10" height="110" as="geometry" />
        </mxCell>
        <mxCell id="CVCiPec276KEIEZ4r-IQ-122" value="Склад" style="shape=umlLifeline;perimeter=lifelinePerimeter;whiteSpace=wrap;html=1;container=1;dropTarget=0;collapsible=0;recursiveResize=0;outlineConnect=0;portConstraint=eastwest;newEdgeStyle={&quot;curved&quot;:0,&quot;rounded&quot;:0};" vertex="1" parent="1">
          <mxGeometry x="2210" y="40" width="100" height="1360" as="geometry" />
        </mxCell>
        <mxCell id="CVCiPec276KEIEZ4r-IQ-171" value="" style="html=1;points=[[0,0,0,0,5],[0,1,0,0,-5],[1,0,0,0,5],[1,1,0,0,-5]];perimeter=orthogonalPerimeter;outlineConnect=0;targetShapes=umlLifeline;portConstraint=eastwest;newEdgeStyle={&quot;curved&quot;:0,&quot;rounded&quot;:0};" vertex="1" parent="CVCiPec276KEIEZ4r-IQ-122">
          <mxGeometry x="45" y="620" width="10" height="70" as="geometry" />
        </mxCell>
        <mxCell id="CVCiPec276KEIEZ4r-IQ-185" value="" style="html=1;points=[[0,0,0,0,5],[0,1,0,0,-5],[1,0,0,0,5],[1,1,0,0,-5]];perimeter=orthogonalPerimeter;outlineConnect=0;targetShapes=umlLifeline;portConstraint=eastwest;newEdgeStyle={&quot;curved&quot;:0,&quot;rounded&quot;:0};" vertex="1" parent="CVCiPec276KEIEZ4r-IQ-122">
          <mxGeometry x="45" y="760" width="10" height="80" as="geometry" />
        </mxCell>
        <mxCell id="CVCiPec276KEIEZ4r-IQ-206" value="" style="html=1;points=[[0,0,0,0,5],[0,1,0,0,-5],[1,0,0,0,5],[1,1,0,0,-5]];perimeter=orthogonalPerimeter;outlineConnect=0;targetShapes=umlLifeline;portConstraint=eastwest;newEdgeStyle={&quot;curved&quot;:0,&quot;rounded&quot;:0};" vertex="1" parent="CVCiPec276KEIEZ4r-IQ-122">
          <mxGeometry x="45" y="1020" width="10" height="80" as="geometry" />
        </mxCell>
        <mxCell id="CVCiPec276KEIEZ4r-IQ-123" value="" style="html=1;points=[[0,0,0,0,5],[0,1,0,0,-5],[1,0,0,0,5],[1,1,0,0,-5]];perimeter=orthogonalPerimeter;outlineConnect=0;targetShapes=umlLifeline;portConstraint=eastwest;newEdgeStyle={&quot;curved&quot;:0,&quot;rounded&quot;:0};" vertex="1" parent="1">
          <mxGeometry x="1175" y="120" width="10" height="1280" as="geometry" />
        </mxCell>
        <mxCell id="CVCiPec276KEIEZ4r-IQ-124" value="" style="endArrow=classic;html=1;rounded=0;exitX=1.083;exitY=0.016;exitDx=0;exitDy=0;exitPerimeter=0;" edge="1" parent="1">
          <mxGeometry width="50" height="50" relative="1" as="geometry">
            <mxPoint x="1185" y="130" as="sourcePoint" />
            <mxPoint x="1444.4999999999995" y="130" as="targetPoint" />
          </mxGeometry>
        </mxCell>
        <mxCell id="CVCiPec276KEIEZ4r-IQ-130" value="" style="endArrow=classic;html=1;rounded=0;exitX=1.083;exitY=0.016;exitDx=0;exitDy=0;exitPerimeter=0;" edge="1" parent="1" target="CVCiPec276KEIEZ4r-IQ-118">
          <mxGeometry width="50" height="50" relative="1" as="geometry">
            <mxPoint x="1185" y="395" as="sourcePoint" />
            <mxPoint x="1424" y="395" as="targetPoint" />
          </mxGeometry>
        </mxCell>
        <mxCell id="CVCiPec276KEIEZ4r-IQ-131" value="1: Открыть сайт" style="text;html=1;align=center;verticalAlign=middle;whiteSpace=wrap;rounded=0;" vertex="1" parent="1">
          <mxGeometry x="1240" y="90" width="155" height="30" as="geometry" />
        </mxCell>
        <mxCell id="CVCiPec276KEIEZ4r-IQ-132" value="" style="endArrow=classic;html=1;rounded=0;dashed=1;" edge="1" parent="1" target="CVCiPec276KEIEZ4r-IQ-123">
          <mxGeometry width="50" height="50" relative="1" as="geometry">
            <mxPoint x="1446.75" y="170.14" as="sourcePoint" />
            <mxPoint x="1230" y="170" as="targetPoint" />
          </mxGeometry>
        </mxCell>
        <mxCell id="CVCiPec276KEIEZ4r-IQ-135" value="2: Показать список товаров" style="text;html=1;align=center;verticalAlign=middle;whiteSpace=wrap;rounded=0;" vertex="1" parent="1">
          <mxGeometry x="1245" y="140" width="165" height="30" as="geometry" />
        </mxCell>
        <mxCell id="CVCiPec276KEIEZ4r-IQ-136" value="" style="endArrow=classic;html=1;rounded=0;exitX=1.083;exitY=0.016;exitDx=0;exitDy=0;exitPerimeter=0;" edge="1" parent="1">
          <mxGeometry width="50" height="50" relative="1" as="geometry">
            <mxPoint x="1185" y="222.5" as="sourcePoint" />
            <mxPoint x="1450" y="223" as="targetPoint" />
          </mxGeometry>
        </mxCell>
        <mxCell id="CVCiPec276KEIEZ4r-IQ-137" value="" style="endArrow=classic;html=1;rounded=0;dashed=1;" edge="1" parent="1" target="CVCiPec276KEIEZ4r-IQ-123">
          <mxGeometry width="50" height="50" relative="1" as="geometry">
            <mxPoint x="1440" y="265" as="sourcePoint" />
            <mxPoint x="1390" y="264.58000000000004" as="targetPoint" />
          </mxGeometry>
        </mxCell>
        <mxCell id="CVCiPec276KEIEZ4r-IQ-139" value="3: Добавить товар" style="text;html=1;align=center;verticalAlign=middle;whiteSpace=wrap;rounded=0;" vertex="1" parent="1">
          <mxGeometry x="1240" y="192.5" width="155" height="30" as="geometry" />
        </mxCell>
        <mxCell id="CVCiPec276KEIEZ4r-IQ-140" value="4: Обновить корзину" style="text;html=1;align=center;verticalAlign=middle;whiteSpace=wrap;rounded=0;" vertex="1" parent="1">
          <mxGeometry x="1240" y="237.5" width="155" height="30" as="geometry" />
        </mxCell>
        <mxCell id="CVCiPec276KEIEZ4r-IQ-141" value="" style="endArrow=classic;html=1;rounded=0;exitX=1.083;exitY=0.016;exitDx=0;exitDy=0;exitPerimeter=0;" edge="1" parent="1" target="CVCiPec276KEIEZ4r-IQ-118">
          <mxGeometry width="50" height="50" relative="1" as="geometry">
            <mxPoint x="1185" y="320" as="sourcePoint" />
            <mxPoint x="1424" y="320" as="targetPoint" />
          </mxGeometry>
        </mxCell>
        <mxCell id="CVCiPec276KEIEZ4r-IQ-144" value="" style="endArrow=classic;html=1;rounded=0;dashed=1;" edge="1" parent="1" target="CVCiPec276KEIEZ4r-IQ-123">
          <mxGeometry width="50" height="50" relative="1" as="geometry">
            <mxPoint x="1446.75" y="360.14" as="sourcePoint" />
            <mxPoint x="1190" y="360" as="targetPoint" />
          </mxGeometry>
        </mxCell>
        <mxCell id="CVCiPec276KEIEZ4r-IQ-145" value="6: Запросить информацию (адрес, контакт)" style="text;html=1;align=center;verticalAlign=middle;whiteSpace=wrap;rounded=0;" vertex="1" parent="1">
          <mxGeometry x="1190" y="330" width="255" height="30" as="geometry" />
        </mxCell>
        <mxCell id="CVCiPec276KEIEZ4r-IQ-146" value="5: Перейти к оформлению заказа" style="text;html=1;align=center;verticalAlign=middle;whiteSpace=wrap;rounded=0;" vertex="1" parent="1">
          <mxGeometry x="1217.5" y="290" width="200" height="30" as="geometry" />
        </mxCell>
        <mxCell id="CVCiPec276KEIEZ4r-IQ-148" value="7: Ввести информацию" style="text;html=1;align=center;verticalAlign=middle;whiteSpace=wrap;rounded=0;" vertex="1" parent="1">
          <mxGeometry x="1240" y="370" width="155" height="30" as="geometry" />
        </mxCell>
        <mxCell id="CVCiPec276KEIEZ4r-IQ-153" value="" style="endArrow=classic;html=1;rounded=0;" edge="1" parent="1" source="CVCiPec276KEIEZ4r-IQ-149">
          <mxGeometry width="50" height="50" relative="1" as="geometry">
            <mxPoint x="1460" y="440" as="sourcePoint" />
            <mxPoint x="1814.4999999999995" y="440" as="targetPoint" />
          </mxGeometry>
        </mxCell>
        <mxCell id="CVCiPec276KEIEZ4r-IQ-154" value="8: Обработать платеж" style="text;html=1;align=center;verticalAlign=middle;whiteSpace=wrap;rounded=0;" vertex="1" parent="1">
          <mxGeometry x="1560" y="410" width="155" height="30" as="geometry" />
        </mxCell>
        <mxCell id="CVCiPec276KEIEZ4r-IQ-155" value="" style="endArrow=classic;html=1;rounded=0;dashed=1;" edge="1" parent="1" source="CVCiPec276KEIEZ4r-IQ-150">
          <mxGeometry width="50" height="50" relative="1" as="geometry">
            <mxPoint x="1810" y="505" as="sourcePoint" />
            <mxPoint x="1454.12" y="505" as="targetPoint" />
          </mxGeometry>
        </mxCell>
        <mxCell id="CVCiPec276KEIEZ4r-IQ-156" value="9: Подтверждение платежа" style="text;html=1;align=center;verticalAlign=middle;whiteSpace=wrap;rounded=0;" vertex="1" parent="1">
          <mxGeometry x="1557.5" y="470" width="160" height="30" as="geometry" />
        </mxCell>
        <mxCell id="CVCiPec276KEIEZ4r-IQ-158" value="" style="endArrow=classic;html=1;rounded=0;" edge="1" parent="1">
          <mxGeometry width="50" height="50" relative="1" as="geometry">
            <mxPoint x="1455" y="570" as="sourcePoint" />
            <mxPoint x="2050" y="570" as="targetPoint" />
          </mxGeometry>
        </mxCell>
        <mxCell id="CVCiPec276KEIEZ4r-IQ-160" value="10: Подготовить и подтвердить заказ" style="text;html=1;align=center;verticalAlign=middle;whiteSpace=wrap;rounded=0;" vertex="1" parent="1">
          <mxGeometry x="1590" y="540" width="240" height="30" as="geometry" />
        </mxCell>
        <mxCell id="CVCiPec276KEIEZ4r-IQ-161" value="" style="endArrow=classic;html=1;rounded=0;dashed=1;" edge="1" parent="1">
          <mxGeometry width="50" height="50" relative="1" as="geometry">
            <mxPoint x="2045" y="624.58" as="sourcePoint" />
            <mxPoint x="1449.666666666667" y="624.58" as="targetPoint" />
          </mxGeometry>
        </mxCell>
        <mxCell id="CVCiPec276KEIEZ4r-IQ-162" value="11: Заказ оформлен" style="text;html=1;align=center;verticalAlign=middle;whiteSpace=wrap;rounded=0;" vertex="1" parent="1">
          <mxGeometry x="1590" y="590" width="240" height="30" as="geometry" />
        </mxCell>
        <mxCell id="CVCiPec276KEIEZ4r-IQ-169" value="" style="endArrow=classic;html=1;rounded=0;" edge="1" parent="1" source="CVCiPec276KEIEZ4r-IQ-163">
          <mxGeometry width="50" height="50" relative="1" as="geometry">
            <mxPoint x="1460" y="680" as="sourcePoint" />
            <mxPoint x="2045" y="680" as="targetPoint" />
          </mxGeometry>
        </mxCell>
        <mxCell id="CVCiPec276KEIEZ4r-IQ-170" value="12: Проверить наличие товара" style="text;html=1;align=center;verticalAlign=middle;whiteSpace=wrap;rounded=0;" vertex="1" parent="1">
          <mxGeometry x="1590" y="650" width="240" height="30" as="geometry" />
        </mxCell>
        <mxCell id="CVCiPec276KEIEZ4r-IQ-172" value="" style="endArrow=classic;html=1;rounded=0;" edge="1" parent="1">
          <mxGeometry width="50" height="50" relative="1" as="geometry">
            <mxPoint x="2055" y="680" as="sourcePoint" />
            <mxPoint x="2255" y="680" as="targetPoint" />
          </mxGeometry>
        </mxCell>
        <mxCell id="CVCiPec276KEIEZ4r-IQ-173" value="13: Запросить наличие товара" style="text;html=1;align=center;verticalAlign=middle;whiteSpace=wrap;rounded=0;" vertex="1" parent="1">
          <mxGeometry x="2030" y="650" width="240" height="30" as="geometry" />
        </mxCell>
        <mxCell id="CVCiPec276KEIEZ4r-IQ-176" value="" style="endArrow=classic;html=1;rounded=0;dashed=1;" edge="1" parent="1" target="CVCiPec276KEIEZ4r-IQ-164">
          <mxGeometry width="50" height="50" relative="1" as="geometry">
            <mxPoint x="2255.33" y="720" as="sourcePoint" />
            <mxPoint x="1659.996666666667" y="720" as="targetPoint" />
          </mxGeometry>
        </mxCell>
        <mxCell id="CVCiPec276KEIEZ4r-IQ-177" value="14: Товар в наличии" style="text;html=1;align=center;verticalAlign=middle;whiteSpace=wrap;rounded=0;" vertex="1" parent="1">
          <mxGeometry x="2030" y="690" width="240" height="30" as="geometry" />
        </mxCell>
        <mxCell id="CVCiPec276KEIEZ4r-IQ-178" value="" style="endArrow=classic;html=1;rounded=0;dashed=1;" edge="1" parent="1">
          <mxGeometry width="50" height="50" relative="1" as="geometry">
            <mxPoint x="2045.33" y="750" as="sourcePoint" />
            <mxPoint x="1450" y="750" as="targetPoint" />
          </mxGeometry>
        </mxCell>
        <mxCell id="CVCiPec276KEIEZ4r-IQ-179" value="15: Товар в наличии" style="text;html=1;align=center;verticalAlign=middle;whiteSpace=wrap;rounded=0;" vertex="1" parent="1">
          <mxGeometry x="1590" y="720" width="240" height="30" as="geometry" />
        </mxCell>
        <mxCell id="CVCiPec276KEIEZ4r-IQ-181" value="" style="endArrow=classic;html=1;rounded=0;" edge="1" parent="1" target="CVCiPec276KEIEZ4r-IQ-121">
          <mxGeometry width="50" height="50" relative="1" as="geometry">
            <mxPoint x="1450" y="805" as="sourcePoint" />
            <mxPoint x="2030" y="805" as="targetPoint" />
          </mxGeometry>
        </mxCell>
        <mxCell id="CVCiPec276KEIEZ4r-IQ-184" value="16: Зарезервировать товар" style="text;html=1;align=center;verticalAlign=middle;whiteSpace=wrap;rounded=0;" vertex="1" parent="1">
          <mxGeometry x="1590" y="775" width="240" height="30" as="geometry" />
        </mxCell>
        <mxCell id="CVCiPec276KEIEZ4r-IQ-186" value="" style="endArrow=classic;html=1;rounded=0;" edge="1" parent="1">
          <mxGeometry width="50" height="50" relative="1" as="geometry">
            <mxPoint x="2050" y="819.57" as="sourcePoint" />
            <mxPoint x="2260" y="820" as="targetPoint" />
          </mxGeometry>
        </mxCell>
        <mxCell id="CVCiPec276KEIEZ4r-IQ-187" value="17: Зарезервировать товар" style="text;html=1;align=center;verticalAlign=middle;whiteSpace=wrap;rounded=0;" vertex="1" parent="1">
          <mxGeometry x="2030" y="780" width="240" height="30" as="geometry" />
        </mxCell>
        <mxCell id="CVCiPec276KEIEZ4r-IQ-189" value="" style="endArrow=classic;html=1;rounded=0;dashed=1;" edge="1" parent="1" source="CVCiPec276KEIEZ4r-IQ-185">
          <mxGeometry width="50" height="50" relative="1" as="geometry">
            <mxPoint x="2247.5" y="870" as="sourcePoint" />
            <mxPoint x="2052.5" y="870" as="targetPoint" />
          </mxGeometry>
        </mxCell>
        <mxCell id="CVCiPec276KEIEZ4r-IQ-190" value="18: Товар зарезервирован" style="text;html=1;align=center;verticalAlign=middle;whiteSpace=wrap;rounded=0;" vertex="1" parent="1">
          <mxGeometry x="2030" y="835" width="240" height="30" as="geometry" />
        </mxCell>
        <mxCell id="CVCiPec276KEIEZ4r-IQ-191" value="" style="endArrow=classic;html=1;rounded=0;dashed=1;" edge="1" parent="1">
          <mxGeometry width="50" height="50" relative="1" as="geometry">
            <mxPoint x="2045.33" y="900" as="sourcePoint" />
            <mxPoint x="1450" y="900" as="targetPoint" />
          </mxGeometry>
        </mxCell>
        <mxCell id="CVCiPec276KEIEZ4r-IQ-192" value="19: Товар зарезервирован" style="text;html=1;align=center;verticalAlign=middle;whiteSpace=wrap;rounded=0;" vertex="1" parent="1">
          <mxGeometry x="1590" y="860" width="240" height="30" as="geometry" />
        </mxCell>
        <mxCell id="CVCiPec276KEIEZ4r-IQ-193" value="Курьер" style="shape=umlLifeline;perimeter=lifelinePerimeter;whiteSpace=wrap;html=1;container=1;dropTarget=0;collapsible=0;recursiveResize=0;outlineConnect=0;portConstraint=eastwest;newEdgeStyle={&quot;curved&quot;:0,&quot;rounded&quot;:0};" vertex="1" parent="1">
          <mxGeometry x="2440" y="40" width="100" height="1360" as="geometry" />
        </mxCell>
        <mxCell id="CVCiPec276KEIEZ4r-IQ-195" value="" style="html=1;points=[[0,0,0,0,5],[0,1,0,0,-5],[1,0,0,0,5],[1,1,0,0,-5]];perimeter=orthogonalPerimeter;outlineConnect=0;targetShapes=umlLifeline;portConstraint=eastwest;newEdgeStyle={&quot;curved&quot;:0,&quot;rounded&quot;:0};" vertex="1" parent="CVCiPec276KEIEZ4r-IQ-193">
          <mxGeometry x="45" y="900" width="10" height="80" as="geometry" />
        </mxCell>
        <mxCell id="CVCiPec276KEIEZ4r-IQ-207" value="" style="html=1;points=[[0,0,0,0,5],[0,1,0,0,-5],[1,0,0,0,5],[1,1,0,0,-5]];perimeter=orthogonalPerimeter;outlineConnect=0;targetShapes=umlLifeline;portConstraint=eastwest;newEdgeStyle={&quot;curved&quot;:0,&quot;rounded&quot;:0};" vertex="1" parent="CVCiPec276KEIEZ4r-IQ-193">
          <mxGeometry x="45" y="1020" width="10" height="80" as="geometry" />
        </mxCell>
        <mxCell id="CVCiPec276KEIEZ4r-IQ-215" value="" style="html=1;points=[[0,0,0,0,5],[0,1,0,0,-5],[1,0,0,0,5],[1,1,0,0,-5]];perimeter=orthogonalPerimeter;outlineConnect=0;targetShapes=umlLifeline;portConstraint=eastwest;newEdgeStyle={&quot;curved&quot;:0,&quot;rounded&quot;:0};" vertex="1" parent="CVCiPec276KEIEZ4r-IQ-193">
          <mxGeometry x="45" y="1160" width="10" height="120" as="geometry" />
        </mxCell>
        <mxCell id="CVCiPec276KEIEZ4r-IQ-196" value="" style="endArrow=classic;html=1;rounded=0;" edge="1" parent="1">
          <mxGeometry width="50" height="50" relative="1" as="geometry">
            <mxPoint x="1455" y="950" as="sourcePoint" />
            <mxPoint x="2489.5" y="950" as="targetPoint" />
          </mxGeometry>
        </mxCell>
        <mxCell id="CVCiPec276KEIEZ4r-IQ-197" value="20: Назначить курьера для доставки" style="text;html=1;align=center;verticalAlign=middle;whiteSpace=wrap;rounded=0;" vertex="1" parent="1">
          <mxGeometry x="1810" y="920" width="240" height="30" as="geometry" />
        </mxCell>
        <mxCell id="CVCiPec276KEIEZ4r-IQ-198" value="" style="endArrow=classic;html=1;rounded=0;dashed=1;" edge="1" parent="1" target="CVCiPec276KEIEZ4r-IQ-118">
          <mxGeometry width="50" height="50" relative="1" as="geometry">
            <mxPoint x="2485.33" y="1000" as="sourcePoint" />
            <mxPoint x="1890" y="1000" as="targetPoint" />
          </mxGeometry>
        </mxCell>
        <mxCell id="CVCiPec276KEIEZ4r-IQ-199" value="21: Курьер назначен" style="text;html=1;align=center;verticalAlign=middle;whiteSpace=wrap;rounded=0;" vertex="1" parent="1">
          <mxGeometry x="1810" y="970" width="240" height="30" as="geometry" />
        </mxCell>
        <mxCell id="CVCiPec276KEIEZ4r-IQ-202" value="" style="endArrow=classic;html=1;rounded=0;" edge="1" parent="1" target="CVCiPec276KEIEZ4r-IQ-123">
          <mxGeometry width="50" height="50" relative="1" as="geometry">
            <mxPoint x="1445" y="1060" as="sourcePoint" />
            <mxPoint x="1196.5" y="1060" as="targetPoint" />
          </mxGeometry>
        </mxCell>
        <mxCell id="CVCiPec276KEIEZ4r-IQ-204" value="22: Подтвердить заказ" style="text;html=1;align=center;verticalAlign=middle;whiteSpace=wrap;rounded=0;" vertex="1" parent="1">
          <mxGeometry x="1197.5" y="1020" width="240" height="30" as="geometry" />
        </mxCell>
        <mxCell id="CVCiPec276KEIEZ4r-IQ-208" value="" style="endArrow=classic;html=1;rounded=0;dashed=1;entryX=1;entryY=1;entryDx=0;entryDy=-5;entryPerimeter=0;exitX=0;exitY=1;exitDx=0;exitDy=-5;exitPerimeter=0;" edge="1" parent="1" source="CVCiPec276KEIEZ4r-IQ-207" target="CVCiPec276KEIEZ4r-IQ-206">
          <mxGeometry width="50" height="50" relative="1" as="geometry">
            <mxPoint x="2481.5" y="1130" as="sourcePoint" />
            <mxPoint x="2279" y="1130" as="targetPoint" />
          </mxGeometry>
        </mxCell>
        <mxCell id="CVCiPec276KEIEZ4r-IQ-212" value="" style="endArrow=classic;html=1;rounded=0;entryX=0;entryY=0;entryDx=0;entryDy=5;entryPerimeter=0;" edge="1" parent="1" source="CVCiPec276KEIEZ4r-IQ-206" target="CVCiPec276KEIEZ4r-IQ-207">
          <mxGeometry width="50" height="50" relative="1" as="geometry">
            <mxPoint x="2270" y="1070" as="sourcePoint" />
            <mxPoint x="2480" y="1070.43" as="targetPoint" />
          </mxGeometry>
        </mxCell>
        <mxCell id="CVCiPec276KEIEZ4r-IQ-213" value="23: Забрать товар" style="text;html=1;align=center;verticalAlign=middle;whiteSpace=wrap;rounded=0;" vertex="1" parent="1">
          <mxGeometry x="2250" y="1030" width="240" height="30" as="geometry" />
        </mxCell>
        <mxCell id="CVCiPec276KEIEZ4r-IQ-214" value="24: Передать товар" style="text;html=1;align=center;verticalAlign=middle;whiteSpace=wrap;rounded=0;" vertex="1" parent="1">
          <mxGeometry x="2250" y="1100" width="240" height="30" as="geometry" />
        </mxCell>
        <mxCell id="CVCiPec276KEIEZ4r-IQ-216" value="" style="endArrow=classic;html=1;rounded=0;" edge="1" parent="1">
          <mxGeometry width="50" height="50" relative="1" as="geometry">
            <mxPoint x="2485" y="1210" as="sourcePoint" />
            <mxPoint x="1185" y="1210" as="targetPoint" />
          </mxGeometry>
        </mxCell>
        <mxCell id="CVCiPec276KEIEZ4r-IQ-217" value="25: Доставить заказ" style="text;html=1;align=center;verticalAlign=middle;whiteSpace=wrap;rounded=0;" vertex="1" parent="1">
          <mxGeometry x="1810" y="1169" width="240" height="30" as="geometry" />
        </mxCell>
        <mxCell id="CVCiPec276KEIEZ4r-IQ-218" value="" style="endArrow=classic;html=1;rounded=0;dashed=1;" edge="1" parent="1">
          <mxGeometry width="50" height="50" relative="1" as="geometry">
            <mxPoint x="1185" y="1310" as="sourcePoint" />
            <mxPoint x="2485" y="1310" as="targetPoint" />
          </mxGeometry>
        </mxCell>
        <mxCell id="CVCiPec276KEIEZ4r-IQ-219" value="26: Принять заказ" style="text;html=1;align=center;verticalAlign=middle;whiteSpace=wrap;rounded=0;" vertex="1" parent="1">
          <mxGeometry x="1810" y="1270" width="240" height="30" as="geometry" />
        </mxCell>
        <mxCell id="CVCiPec276KEIEZ4r-IQ-220" value="Доставка заказа" style="shape=umlFrame;whiteSpace=wrap;html=1;pointerEvents=0;" vertex="1" parent="1">
          <mxGeometry x="1090" width="1550" height="1490" as="geometry" />
        </mxCell>
      </root>
    </mxGraphModel>
  </diagram>
</mxfile>
